<svg id="Layer_1" enable-background="new 0 0 512 512" height="512" viewBox="0 0 512 512" width="512" xmlns="http://www.w3.org/2000/svg"><g><g><g><path d="m374.155 266h-236.31v-50.22c0-65.255 52.9-118.155 118.155-118.155 65.255 0 118.155 52.9 118.155 118.155z" fill="#c56528"/><g><path d="m380.091 504.5v-50.01c54.224-26.612 91.636-82.339 91.636-146.634v-122.177h-57.273v122.177c0 58.499-47.661 106.092-106.244 106.092h-104.421c-58.583 0-106.244-47.593-106.244-106.092v-122.177h-57.272v122.177c0 64.295 37.413 120.022 91.636 146.634v50.01z" fill="#b5e6a8"/><g><path d="m431.727 185.679v122.177c0 60.273-32.879 113.016-81.663 141.303-6.17 3.578-9.973 10.163-9.973 17.296v38.045h40v-50.01c54.224-26.612 91.636-82.338 91.636-146.634v-122.177z" fill="#a5d998"/></g><path d="m256.018 440.637h-.036c-13.984 0-25.32-11.336-25.32-25.32v-34.834h50.676v34.834c0 13.984-11.336 25.32-25.32 25.32z" fill="#ffe2ce"/><g><g><g fill="#ffe2ce"><path d="m166.706 291.888h-10.747c-11.174 0-20.232-9.058-20.232-20.232v-.003c0-11.174 9.058-20.232 20.232-20.232h10.747z"/><path d="m345.294 251.422h10.747c11.174 0 20.232 9.058 20.232 20.232v.003c0 11.174-9.058 20.232-20.232 20.232h-10.747z"/><path d="m256.064 396.217h-.128c-49.28 0-89.23-39.95-89.23-89.23v-92.978c0-21.134 23.846-34.973 42.165-24.722 34.296 19.192 59.954 19.197 94.259 0 18.35-10.269 42.164 3.561 42.164 24.722v92.978c0 49.28-39.95 89.23-89.23 89.23z"/></g><g><path d="m303.13 189.287c-2.52 1.41-4.988 2.704-7.421 3.907 5.76 5.046 9.586 12.34 9.586 20.816v92.978c0 42.427-29.611 77.936-69.294 86.992 6.41 1.463 13.083 2.238 19.936 2.238h.128c49.28 0 89.23-39.95 89.23-89.23v-92.978c-.001-21.162-23.815-34.992-42.165-24.723z" fill="#ffd9bf"/></g><ellipse cx="217.006" cy="268.579" fill="#fff" rx="25.773" ry="25.736"/><ellipse cx="294.994" cy="268.579" fill="#fff" rx="25.773" ry="25.736"/></g></g><path d="m25.221 185.679h72.324v-9.749c0-14.191-11.504-25.696-25.696-25.696h-46.628c-9.787 0-17.721 7.934-17.721 17.721v.002c0 9.788 7.934 17.722 17.721 17.722z" fill="#ffe2ce"/><path d="m486.779 185.679h-72.324v-9.749c0-14.191 11.504-25.696 25.696-25.696h46.628c9.787 0 17.721 7.934 17.721 17.721v.002c0 9.788-7.934 17.722-17.721 17.722z" fill="#ffe2ce"/><path d="m484.5 150.234h-457c-11.046 0-20-8.954-20-20v-102.734c0-11.046 8.954-20 20-20h457c11.046 0 20 8.954 20 20v102.734c0 11.046-8.954 20-20 20z" fill="#ff5781"/><path d="m484.5 7.5h-40c11.046 0 20 8.954 20 20v102.734c0 11.046-8.954 20-20 20h40c11.046 0 20-8.954 20-20v-102.734c0-11.046-8.954-20-20-20z" fill="#ff4170"/></g></g></g><g><path d="m387.591 504.5v-45.408c17.745-9.315 33.596-21.573 47.168-36.484 2.788-3.063 2.565-7.807-.498-10.595-3.062-2.788-7.806-2.565-10.595.498-13.358 14.676-29.131 26.534-46.88 35.245-2.568 1.261-4.196 3.872-4.196 6.733v50.01c.345 9.932 14.66 9.924 15.001.001z"/><path d="m250.278 268.579c0-18.326-14.926-33.236-33.273-33.236-44.141 1.826-44.128 64.652 0 66.472 18.347 0 33.273-14.91 33.273-33.236zm-33.273 18.236c-10.076 0-18.272-8.181-18.272-18.236 1.003-24.192 35.546-24.185 36.545 0 0 10.055-8.197 18.236-18.273 18.236z"/><path d="m328.267 268.579c0-18.326-14.926-33.236-33.272-33.236-44.141 1.826-44.128 64.652 0 66.472 18.346 0 33.272-14.91 33.272-33.236zm-33.272 18.236c-10.076 0-18.273-8.181-18.273-18.236 1.003-24.192 35.546-24.185 36.545 0 0 10.055-8.197 18.236-18.272 18.236z"/><path d="m217.006 261.079c-9.652 0-9.668 15 0 15 9.651 0 9.667-15 0-15z"/><path d="m294.994 261.079c-9.652 0-9.668 15 0 15 9.652 0 9.668-15 0-15z"/><path d="m484.5 0h-392.545c-9.776.3-10.086 14.576 0 15h392.545c6.893 0 12.5 5.607 12.5 12.5v102.734c0 6.889-5.602 12.494-12.49 12.5h-457.02c-6.888-.005-12.49-5.61-12.49-12.5v-102.734c0-6.893 5.607-12.5 12.5-12.5h24.493c4.142 0 7.5-3.358 7.5-7.5s-3.358-7.5-7.5-7.5h-24.493c-15.164 0-27.5 12.336-27.5 27.5v102.734c0 7.536 3.049 14.371 7.975 19.343-16.535 15.33-5.552 43.631 17.247 43.601h7.551s0 114.677 0 114.677c-.575 62.479 36.233 122.699 91.636 151.235v45.41c0 4.142 3.358 7.5 7.5 7.5s7.5-3.358 7.5-7.5v-50.01c0-2.861-1.627-5.473-4.196-6.733-52.601-25.277-88-81.406-87.44-139.901v-114.676h42.272v114.677c0 62.635 51.025 113.592 113.744 113.592h19.956c7.394 35.391 57.122 35.4 64.511 0h19.955c62.718 0 113.744-50.957 113.744-113.592v-114.678h42.272v114.677c0 26.165-6.652 52.057-19.238 74.877-2 3.627-.682 8.189 2.945 10.189 3.626 2 8.189.682 10.189-2.945 13.806-25.033 21.103-53.43 21.103-82.122v-114.676h7.551c22.865-.053 33.767-28.178 17.247-43.602 4.926-4.972 7.975-11.807 7.975-19.343v-102.734c.001-15.164-12.335-27.5-27.499-27.5zm-117.845 215.78v30.257c-4.34-1.805-9.186-2.403-13.861-2.116v-29.913c0-12.597-6.68-24.034-17.869-30.595-39.879-22.305-52.56 38.789-122.392-.672-10.979-6.144-24.231-5.886-35.449.691-11.195 6.563-17.878 17.994-17.878 30.576v29.913c-4.676-.287-9.522.311-13.861 2.116-.238-32.929-1.943-59.027 16.43-88.303h188.445c10.763 17.425 16.435 37.394 16.435 58.046zm-110.591 172.937c-45.11.074-81.862-36.619-81.858-81.73-.001-10.016.001-44.969 0-55.565v-37.413c0-7.201 3.912-13.794 10.465-17.636 6.432-3.77 14.084-4.138 20.537-.542 36.552 20.454 65.032 20.454 101.584 0 13.039-7.619 31.295 3.045 31.002 18.178-.001 19.333.001 58.486 0 77.879v15.098c0 45.067-36.664 81.731-81.73 81.731zm-100.105-129.795h3.247v25.466c-7.852.839-15.979-4.057-15.979-12.734 0-7.021 5.711-12.732 12.732-12.732zm196.835 0c21.226-1.438 21.253 26.759 0 25.466zm-327.572-80.743c-13.563-.563-13.554-19.887 0-20.445 15.546.002 31.092 0 46.638 0 11.06.006 18.936 9.764 18.186 20.445zm79.823 129.677v-122.177c0-9.829.259-19.267-5.451-27.945h44.939c-9.312 17.841-14.188 37.662-14.188 58.046v45.255c-8.349 19.689 8.35 39.774 28.861 38.353-2.833 44.077 24.01 84.542 63.956 98.609v8.451h-19.373c-54.447 0-98.744-44.228-98.744-98.592zm150.937 125.281c-9.826 0-17.82-7.994-17.82-17.82v-13.243c5.764 1.075 11.704 1.643 17.774 1.643h.128c6.071 0 12.011-.568 17.774-1.643v13.243c0 9.826-7.994 17.82-17.856 17.82zm150.973-125.281c0 54.364-44.296 98.592-98.744 98.592h-19.373v-8.451c39.946-14.067 66.789-54.534 63.956-98.609 20.524 1.485 37.202-18.698 28.861-38.354v-45.254c0-20.394-4.872-40.207-14.184-58.046h44.935c-5.71 8.677-5.451 18.116-5.451 27.945zm79.823-129.677h-64.824c-.749-10.681 7.126-20.439 18.186-20.445 15.546 0 31.092.002 46.638 0 13.563.562 13.555 19.887 0 20.445z"/><path d="m243.62 49.378c9.911-.328 9.937-14.66 0-15h-31.315c-4.142 0-7.5 3.358-7.5 7.5v74.32c0 4.142 3.358 7.5 7.5 7.5h31.315c4.142 0 7.5-3.358 7.5-7.5s-3.358-7.5-7.5-7.5h-23.815v-22.16h21.506c4.142 0 7.5-3.358 7.5-7.5s-3.358-7.5-7.5-7.5h-21.506v-22.16z"/><path d="m125.564 115.016c0 4.419 2.7 8.683 7.676 8.683.623-.002 15.311-.059 21.172-.162 48.252-.893 48.292-88.37-.734-87.624h-20.614c-4.213 0-7.5 3.405-7.5 7.576zm28.115-64.104c29.685-.528 28.886 57.289.472 57.626-3.069.054-8.777.096-13.464.123-.028-8.577-.093-48.835-.108-57.749z"/><path d="m295.297 33.693h-21.787c-4.142 0-7.5 3.358-7.5 7.5v75.005c0 3.733 3.733 7.5 7.533 7.5 0 0 20.036-.089 25.559-.089 27.071-.194 37.752-34.821 15.974-50.284 12.247-15.986.52-39.738-19.779-39.632zm0 15c12.947.537 12.94 18.984 0 19.518-4.762 0-9.525.026-14.287.02v-19.538zm3.805 59.916c-3.303 0-11.786.032-18.092.058v-25.411c6.031-.024 12.061-.025 18.092-.025 16.834.697 16.828 24.684 0 25.378z"/><path d="m358.141 124.041c4.142 0 7.5-3.358 7.5-7.5v-67.505h13.294c9.931-.344 9.923-14.659 0-15h-41.421c-9.931.344-9.923 14.659 0 15h13.127v67.504c0 4.143 3.358 7.501 7.5 7.501z"/><path d="m256.03 325.285c-.01 0-.02 0-.029 0-10.32.007-20.028 4.037-27.337 11.347-2.929 2.929-2.929 7.678 0 10.606 3.535 2.929 7.071 2.929 10.606 0 4.479-4.479 10.425-6.949 16.742-6.953 6.312-.005 12.25 2.454 16.718 6.921 2.929 2.929 7.678 2.929 10.606 0 2.929-2.929 2.929-7.678 0-10.606-7.297-7.298-16.993-11.315-27.306-11.315z"/></g></g></svg>