<?xml version="1.0" encoding="iso-8859-1"?>
<!-- Generator: Adobe Illustrator 19.0.0, SVG Export Plug-In . SVG Version: 6.00 Build 0)  -->
<svg version="1.1" id="Capa_1" xmlns="http://www.w3.org/2000/svg" xmlns:xlink="http://www.w3.org/1999/xlink" x="0px" y="0px"
	 viewBox="0 0 512.001 512.001" style="enable-background:new 0 0 512.001 512.001;" xml:space="preserve">
<path style="fill:#4398D1;" d="M315.728,8.538l-51.199,68.266l51.199,68.266h187.73V8.538H315.728z M324.261,93.87
	c-9.429,0-17.066-7.637-17.066-17.066s7.637-17.066,17.066-17.066c9.429,0,17.066,7.637,17.066,17.066S333.69,93.87,324.261,93.87z"
	/>
<polygon style="fill:#3F8FC4;" points="503.458,39.274 351.218,145.069 503.458,145.069 "/>
<rect x="136.531" y="213.334" style="fill:#F9B44D;" width="238.929" height="213.33"/>
<rect x="230.396" y="213.334" style="fill:#F77219;" width="51.199" height="51.199"/>
<path style="fill:#87CED9;" d="M428.673,59.737h32.119V42.671h-17.066v-8.533H426.66v8.738
	c-10.445,1.067-18.048,10.402-16.981,20.847c0.666,6.494,4.616,12.194,10.462,15.095l22.459,11.23
	c0.998,0.486,1.417,1.698,0.922,2.696c-0.333,0.683-1.024,1.118-1.775,1.126h-32.153v17.066h17.066v8.533h17.066v-8.738
	c10.445-1.067,18.048-10.402,16.981-20.847c-0.666-6.494-4.616-12.194-10.462-15.095l-22.459-11.23
	c-0.998-0.486-1.417-1.698-0.922-2.696c0.333-0.683,1.024-1.118,1.775-1.126H428.673z"/>
<path style="fill:#4398D1;" d="M413.86,264.533H375.46v-17.066h38.399c16.495,0,29.866-13.372,29.866-29.866
	s-13.372-29.866-29.866-29.866H230.396c-32.989,0-59.732-26.743-59.732-59.732s26.743-59.732,59.732-59.732h76.799v17.066h-76.799
	c-23.56,0-42.666,19.106-42.666,42.666s19.106,42.666,42.666,42.666H413.86c25.924,0,46.933,21.009,46.933,46.933
	S439.784,264.533,413.86,264.533z"/>
<polygon style="fill:#F7AA36;" points="136.531,422.397 136.531,426.664 375.46,426.664 375.46,243.201 "/>
<path style="fill:#FEC9A3;" d="M332.794,418.131h-17.066c16.495,0,29.866-13.372,29.866-29.866l0,0l0,0
	c0-16.495-13.372-29.866-29.866-29.866h-85.332c-37.008-21.154-82.456-21.154-119.465,0l0,0v145.064h221.863l154.792-92.875
	c9.847-5.905,15.872-16.546,15.872-28.032l0,0c0-18.048-14.634-32.691-32.691-32.691l0,0h-1.8
	c-5.359,0.009-10.632,1.323-15.36,3.848L332.794,418.131z"/>
<rect y="358.399" style="fill:#4398D1;" width="110.931" height="145.064"/>
<path style="fill:#F5B789;" d="M332.794,426.664h-93.865c-4.71,0-8.533-3.823-8.533-8.533c0-4.71,3.823-8.533,8.533-8.533h93.865
	c4.71,0,8.533,3.823,8.533,8.533C341.328,422.841,337.505,426.664,332.794,426.664z"/>
<rect y="418.131" style="fill:#3F8FC4;" width="110.931" height="85.332"/>
<circle style="fill:#18588C;" cx="59.732" cy="452.264" r="17.066"/>
<path d="M85.332,452.264c0-14.14-11.46-25.6-25.6-25.6s-25.6,11.46-25.6,25.6c0,14.139,11.46,25.6,25.6,25.6
	S85.332,466.403,85.332,452.264L85.332,452.264z M51.199,452.264c0-4.71,3.823-8.533,8.533-8.533s8.533,3.823,8.533,8.533
	s-3.823,8.533-8.533,8.533S51.199,456.983,51.199,452.264z"/>
<path d="M503.458,0.005h-187.73c-2.688,0-5.214,1.263-6.827,3.413L260.262,68.27h-29.866c-32.989,0-59.732,26.743-59.732,59.732
	s26.743,59.732,59.732,59.732H413.86c16.495,0,29.866,13.372,29.866,29.866s-13.372,29.866-29.866,29.866h-29.866v-34.133
	c0-4.71-3.823-8.533-8.533-8.533H136.531c-4.71,0-8.533,3.823-8.533,8.533v127.998c-6.613,2.313-13.03,5.163-19.174,8.533H0v17.066
	h102.398V494.93H0v17.066h323.34c7.731,0,15.326-2.108,21.956-6.084l146.677-88.003c19.524-11.708,25.864-37.034,14.148-56.558
	c-7.449-12.416-20.872-20.019-35.353-20.019h-1.8c-6.767,0-13.423,1.673-19.396,4.847l-65.578,34.978V264.533h29.866
	c25.924,0,46.933-21.009,46.933-46.933s-21.009-46.933-46.933-46.933H230.396c-23.56,0-42.666-19.106-42.666-42.666
	s19.106-42.666,42.666-42.666h29.866l48.639,64.852c1.613,2.15,4.139,3.413,6.827,3.413h187.73c4.71,0,8.533-3.823,8.533-8.533
	V8.538C511.991,3.827,508.169,0.005,503.458,0.005z M238.929,221.868h34.133V256h-34.133V221.868z M145.064,221.868h76.799v42.666
	c0,4.71,3.823,8.533,8.533,8.533h51.199c4.71,0,8.533-3.823,8.533-8.533v-42.666h76.799v168.385l-13.977,7.449
	c5.214-20.556-7.228-41.446-27.784-46.659c-3.081-0.777-6.255-1.178-9.438-1.178h-83.105
	c-26.726-14.566-57.727-19.259-87.559-13.244V221.868z M457.601,361.24c3.499-1.86,7.398-2.842,11.366-2.842h1.8
	c13.346,0,24.157,10.82,24.157,24.157c0,8.491-4.454,16.358-11.733,20.719l-146.677,88.003c-3.976,2.389-8.533,3.652-13.175,3.652
	H119.465V363.518c33.681-17.229,73.769-16.35,106.665,2.33c1.306,0.734,2.773,1.101,4.267,1.084h85.332
	c11.784,0,21.333,9.549,21.333,21.333s-9.549,21.333-21.333,21.333h-76.799c-4.71,0-8.533,3.823-8.533,8.533
	c0,4.71,3.823,8.533,8.533,8.533h93.865c1.399,0,2.782-0.341,4.019-0.998L457.601,361.24z M494.925,136.536h-174.93l-38.399-51.199
	h18.636c4.71,13.329,19.336,20.318,32.665,15.599c13.329-4.71,20.318-19.336,15.599-32.665
	c-4.71-13.329-19.336-20.318-32.665-15.599c-7.287,2.577-13.022,8.311-15.599,15.599h-18.636l38.399-51.199h174.93V136.536z
	 M315.728,76.803c0-4.71,3.823-8.533,8.533-8.533c4.71,0,8.533,3.823,8.533,8.533s-3.823,8.533-8.533,8.533
	C319.551,85.336,315.728,81.522,315.728,76.803z"/>
<path d="M426.66,119.469h17.066v-8.738c10.445-1.067,18.048-10.402,16.981-20.847c-0.666-6.494-4.616-12.194-10.462-15.095
	l-22.459-11.23c-0.998-0.486-1.417-1.698-0.922-2.696c0.333-0.683,1.024-1.118,1.775-1.126h32.153V42.671h-17.066v-8.533H426.66
	v8.738c-10.445,1.067-18.048,10.402-16.981,20.847c0.666,6.494,4.616,12.194,10.462,15.095l22.459,11.23
	c0.998,0.486,1.417,1.698,0.922,2.696c-0.333,0.683-1.024,1.118-1.775,1.126h-32.153v17.066h17.066V119.469z"/>
<g>
</g>
<g>
</g>
<g>
</g>
<g>
</g>
<g>
</g>
<g>
</g>
<g>
</g>
<g>
</g>
<g>
</g>
<g>
</g>
<g>
</g>
<g>
</g>
<g>
</g>
<g>
</g>
<g>
</g>
</svg>
