<svg id="Flat" height="512" viewBox="0 0 512 512" width="512" xmlns="http://www.w3.org/2000/svg"><path d="m352 427.286c-32.48 13.345-81.679 28.714-136 28.714-88 0-176-48-176-48 0-123.712 78.8-208 176-208 90.778 0 165.5 73.515 174.985 184z" fill="#f7d1b2"/><circle cx="216" cy="112" fill="#f7d1b2" r="88"/><path d="m460.284 273.04a40 40 0 0 0 -56.568 0l-5.657 5.656-135.765 135.765-16.97 73.539 73.539-16.971 135.764-135.764 5.657-5.657a40 40 0 0 0 0-56.568z" fill="#6ed2f0"/><path d="m318.461 278.863h80v192h-80z" fill="#3cb4d7" transform="matrix(.707 .707 -.707 .707 370.059 -143.675)"/></svg>