<svg id="Layer_1" enable-background="new 0 0 510.041 510.041" height="512" viewBox="0 0 510.041 510.041" width="512" xmlns="http://www.w3.org/2000/svg"><g><path d="m323.782 191.096c36.458 19.068 79.088-23.601 60.028-60.028 55.619-48.368 7.469-80.703-28.937-117.398-24.945-24.215-57.483-13.647-77.13 11.333-36.458-19.069-79.087 23.601-60.028 60.028l-174.722 174.722-26.517 132.582 132.582-26.517zm-65.446-61.834-141.937 141.938-31.82-10.606 152.544-152.544zm-110.117 194.971-10.607-31.82 141.938-141.938 21.213 21.213zm162.071-289.351c6.457-6.458 16.912-6.459 23.371 0l40.269 40.268c11.751 12.865.28 23.965-9.528 32.898l-63.64-63.639zm-62.561 20.134c5.845-5.845 15.358-5.85 21.209-.004l84.863 84.862c5.854 5.861 5.857 15.345-.005 21.207v.001c-5.859 5.858-15.343 5.865-21.208.004l-84.863-84.862c-5.843-5.85-5.842-15.361.004-21.208zm-179.543 231.736 40.405 13.468 13.468 40.405-67.341 13.468z"/><path d="m487.485 376.067 16.958-16.397-34.212-59.256-22.69 6.491c-7.401-5.701-15.582-10.43-24.197-13.986l-5.719-22.876h-68.423l-5.719 22.876c-8.615 3.556-16.796 8.285-24.197 13.986l-22.689-6.491-34.212 59.256 16.958 16.397c-1.21 9.059-1.269 18.448 0 27.949l-16.958 16.397 34.211 59.256 22.69-6.49c7.401 5.701 15.582 10.43 24.197 13.986l5.719 22.876h68.423l5.719-22.876c8.615-3.556 16.796-8.285 24.197-13.986l22.69 6.49 34.211-59.256-16.958-16.397c1.211-9.059 1.27-18.448.001-27.949zm-30.794-2.07c4.636 21.29-1.459 36.437-1.778 40.255l11.838 11.446-10.789 18.686-15.858-4.536c-13.014 14.764-36.382 23.248-41.906 24.213l-3.995 15.98h-21.577l-3.995-15.98c-19.236-3.864-38.283-19.899-41.906-24.213l-15.858 4.536-10.788-18.686 11.838-11.446c-5.828-17.338-2.483-41.304 0-48.42l-11.838-11.447 10.788-18.686 15.858 4.537c13.014-14.764 36.382-23.248 41.906-24.213l3.995-15.98h21.577l3.995 15.98c19.233 3.863 38.291 19.905 41.906 24.213l15.858-4.537 10.788 18.686-11.838 11.447z"/><path d="m383.415 345.041c-59.139 1.061-59.13 88.948.002 90 59.137-1.06 59.128-88.948-.002-90zm0 60c-19.612-.104-19.61-29.899.001-30 19.611.104 19.609 29.899-.001 30z"/><path d="m170.598 420.041h-165v30h165c8.271 0 15 6.729 15 15s-6.729 15-15 15h-90v30h90c59.139-1.054 59.128-88.952 0-90z"/></g></svg>